<?xml version="1.0" encoding="UTF-8" standalone="no"?>
<!-- Created with Inkscape (http://www.inkscape.org/) -->

<svg
   width="173mm"
   height="143mm"
   viewBox="0 0 173 143"
   version="1.1"
   id="svg2677"
   inkscape:version="1.2.2 (b0a8486, 2022-12-01)"
   sodipodi:docname="windows311.svg"
   xmlns:inkscape="http://www.inkscape.org/namespaces/inkscape"
   xmlns:sodipodi="http://sodipodi.sourceforge.net/DTD/sodipodi-0.dtd"
   xmlns="http://www.w3.org/2000/svg"
   xmlns:svg="http://www.w3.org/2000/svg">
  <sodipodi:namedview
     id="namedview2679"
     pagecolor="#ffffff"
     bordercolor="#000000"
     borderopacity="0.25"
     inkscape:showpageshadow="2"
     inkscape:pageopacity="0.0"
     inkscape:pagecheckerboard="0"
     inkscape:deskcolor="#d1d1d1"
     inkscape:document-units="mm"
     showgrid="false"
     inkscape:zoom="0.915"
     inkscape:cx="366"
     inkscape:cy="319"
     inkscape:window-width="1390"
     inkscape:window-height="1205"
     inkscape:window-x="2035"
     inkscape:window-y="25"
     inkscape:window-maximized="0"
     inkscape:current-layer="layer1" />
  <defs
     id="defs2674" />
  <g
     inkscape:label="Layer 1"
     inkscape:groupmode="layer"
     id="layer1"
     transform="translate(-11.8,-50.4)">
    <path
       style="display:inline;fill:#000000;stroke-width:0"
       d="M 185,60.7 C 156,45.9 124,48.4 102,59.4 V 183 c 22,-13 48,-17 83,0 z"
       id="path1820"
       sodipodi:nodetypes="ccccc"
       inkscape:label="pane-black" />
    <path
       style="fill:#ff0000;stroke-width:0"
       d="m 130,67.4 c -12,1 -19,4.4 -28,8.9 V 115 c 8,-4 17,-7 28,-7 z"
       id="path1820-7"
       sodipodi:nodetypes="ccccc"
       inkscape:label="pane-red" />
    <path
       style="fill:#00ff00;stroke-width:0"
       d="m 140,66.6 c 11,-0.3 18,-0.1 27,4.4 v 40 c -10,-4 -18,-5 -27,-4 z"
       id="path1820-7-8"
       sodipodi:nodetypes="ccccc"
       inkscape:label="pane-green" />
    <path
       style="fill:#ffff00;stroke-width:0"
       d="m 140,118 c 10,0 18,0 28,4 v 39 c -9,-4 -18,-5 -28,-4 z"
       id="path1820-7-8-3"
       sodipodi:nodetypes="ccccc"
       inkscape:label="pane-yellow" />
    <path
       style="fill:#0000ff;stroke-width:0"
       d="m 130,118 c -12,1 -19,3 -28,8 v 40 c 7,-5 18,-8 28,-9 z"
       id="path1820-7-0"
       sodipodi:nodetypes="ccccc"
       inkscape:label="pane-blue" />
    <path
       style="display:inline;fill:#000000;stroke-width:0"
       d="M 99.4,60.7 V 75 l -14.9,8.7 0.3,-15.8 z"
       id="path2034" />
    <path
       style="display:inline;fill:#000000;stroke-width:0"
       d="m 99.4,78.7 v 14 L 84.6,102 84.9,85.7 Z"
       id="path2034-3" />
    <path
       style="display:inline;fill:#000000;stroke-width:0"
       d="M 99.4,96.7 V 111 l -15,9 0.3,-16 z"
       id="path2034-0" />
    <path
       style="display:inline;fill:#000000;stroke-width:0"
       d="m 99.4,114 v 15 l -14.9,8 0.3,-15 z"
       id="path2034-4" />
    <path
       style="display:inline;fill:#000000;stroke-width:0"
       d="m 99.4,132 v 14 l -15,8 0.3,-15 z"
       id="path2034-8" />
    <path
       style="display:inline;fill:#000000;stroke-width:0"
       d="m 99.4,150 v 14 l -14.9,8 0.3,-15 z"
       id="path2034-7" />
    <path
       style="display:inline;fill:#000000;stroke-width:0"
       d="m 99.4,168 v 14 l -14.7,8 0.3,-15 z"
       id="path2034-5" />
    <path
       style="display:inline;fill:#000000;stroke-width:0"
       d="m 81.3,66 v 13.7 l -14,8 V 73.2 Z"
       id="path2106" />
    <path
       style="display:inline;fill:#d45500;stroke-width:0"
       d="m 81.2,83.7 v 14 l -14,8.3 V 91.7 Z"
       id="path2106-8" />
    <path
       style="display:inline;fill:#d45500;stroke-width:0"
       d="m 81.1,102 v 13 l -14,8 v -14 z"
       id="path2106-5" />
    <path
       style="display:inline;fill:#000000;stroke-width:0"
       d="m 81.1,120 v 14 l -14,7 v -14 z"
       id="path2106-89" />
    <path
       style="display:inline;fill:#00ffff;stroke-width:0"
       d="m 81.1,137 v 14 l -14,8 v -14 z"
       id="path2106-6" />
    <path
       style="display:inline;fill:#00ffff;stroke-width:0"
       d="m 81.3,154 v 14 l -14,7 v -14 z"
       id="path2106-0" />
    <path
       style="display:inline;fill:#000000;stroke-width:0"
       d="m 81.4,171 v 14 l -14,8 v -14 z"
       id="path2106-4" />
    <path
       style="display:inline;fill:#000000;stroke-width:0"
       d="m 63.8,66.8 v 12.9 l -11.9,5 0.3,-12.1 z"
       id="path2170" />
    <path
       style="display:inline;fill:#d45500;stroke-width:0"
       d="m 63.6,84.7 v 13 L 51.7,104 52,90.7 Z"
       id="path2170-3" />
    <path
       style="display:inline;fill:#d45500;stroke-width:0"
       d="m 63.7,102 v 13 l -11.9,6 0.3,-13 z"
       id="path2170-37" />
    <path
       style="display:inline;fill:#000000;stroke-width:0"
       d="m 63.7,120 v 12 l -11.9,6 0.3,-12 z"
       id="path2170-0" />
    <path
       style="display:inline;fill:#00ffff;stroke-width:0"
       d="m 63.6,138 v 13 l -11.9,5 0.3,-12 z"
       id="path2170-01" />
    <path
       style="display:inline;fill:#00ffff;stroke-width:0"
       d="m 63.5,155 v 12 l -11.9,6 0.3,-12 z"
       id="path2170-03" />
    <path
       style="display:inline;fill:#000000;stroke-width:0"
       d="m 63.8,172 v 13 l -11.9,6 0.3,-13 z"
       id="path2170-00" />
    <path
       style="display:inline;fill:#000000;stroke-width:0"
       d="m 47.4,68.7 v 9 l -9.8,4 v -8.3 z"
       id="path2234" />
    <path
       style="display:inline;fill:#d45500;stroke-width:0"
       d="m 47.3,86.7 v 9 l -9.8,4 v -8 z"
       id="path2234-3" />
    <path
       style="display:inline;fill:#d45500;stroke-width:0"
       d="m 47.4,104 v 9 l -9.8,4 v -8 z"
       id="path2234-8" />
    <path
       style="display:inline;fill:#000000;stroke-width:0"
       d="m 47.3,122 v 9 l -9.8,4 v -9 z"
       id="path2234-36" />
    <path
       style="display:inline;fill:#00ffff;stroke-width:0"
       d="m 47.3,140 v 9 l -9.8,4 v -8 z"
       id="path2234-0" />
    <path
       style="display:inline;fill:#00ffff;stroke-width:0"
       d="m 47.4,157 v 9 l -9.8,4 v -8 z"
       id="path2234-4" />
    <path
       style="display:inline;fill:#000000;stroke-width:0"
       d="m 47.5,175 v 9 l -9.8,4 v -8 z"
       id="path2234-09" />
    <path
       style="display:inline;fill:#000000;stroke-width:0"
       d="m 31.2,63.4 v 7.1 l -7.1,4.3 v -7.5 z"
       id="path2298" />
    <path
       style="display:inline;fill:#d45500;stroke-width:0"
       d="m 31.3,81.7 v 7 l -7.1,4 v -8 z"
       id="path2298-2" />
    <path
       style="display:inline;fill:#d45500;stroke-width:0"
       d="m 31.3,98.7 v 7.3 l -7.1,4 v -7 z"
       id="path2298-4" />
    <path
       style="display:inline;fill:#000000;stroke-width:0"
       d="m 31.3,117 v 7 l -7.1,4 v -7 z"
       id="path2298-9" />
    <path
       style="display:inline;fill:#00ffff;stroke-width:0"
       d="m 31.3,135 v 7 l -7.1,4 v -8 z"
       id="path2298-29" />
    <path
       style="display:inline;fill:#00ffff;stroke-width:0"
       d="m 31.5,151 v 8 l -7.1,4 v -8 z"
       id="path2298-1" />
    <path
       style="display:inline;fill:#000000;stroke-width:0"
       d="m 31.4,169 v 7 l -7.1,4 v -7 z"
       id="path2298-0" />
    <path
       style="display:inline;fill:#000000;stroke-width:0"
       d="m 11.9,175 -0.1,-5 5.5,-3 0.1,5 z"
       id="path2362" />
    <path
       style="display:inline;fill:#00ffff;stroke-width:0"
       d="m 12.2,157 -0.1,-5 5.5,-3 0.1,5 z"
       id="path2362-3" />
    <path
       style="display:inline;fill:#00ffff;stroke-width:0"
       d="m 12,140 -0.1,-5 5.5,-3 0.1,5 z"
       id="path2362-0" />
    <path
       style="display:inline;fill:#000000;stroke-width:0"
       d="m 11.9,122 -0.1,-5 5.5,-3 0.1,5 z"
       id="path2362-1" />
    <path
       style="display:inline;fill:#d45500;stroke-width:0"
       d="m 12.1,104 -0.2,-5.3 5.5,-3 0.2,5.3 z"
       id="path2362-9" />
    <path
       style="display:inline;fill:#d45500;stroke-width:0"
       d="m 12.1,86.7 -0.1,-5 5.5,-3 0.1,5 z"
       id="path2362-8" />
    <path
       style="display:inline;fill:#000000;stroke-width:0"
       d="m 12,68.2 -0.1,-5 5.5,-3 0.1,5 z"
       id="path2362-6" />
  </g>
</svg>
